<?xml version="1.0" encoding="UTF-8" standalone="no"?>
<!-- Created with Inkscape (http://www.inkscape.org/) -->

<svg
   xmlns:dc="http://purl.org/dc/elements/1.1/"
   xmlns:cc="http://creativecommons.org/ns#"
   xmlns:rdf="http://www.w3.org/1999/02/22-rdf-syntax-ns#"
   xmlns:svg="http://www.w3.org/2000/svg"
   xmlns="http://www.w3.org/2000/svg"
   xmlns:sodipodi="http://sodipodi.sourceforge.net/DTD/sodipodi-0.dtd"
   xmlns:inkscape="http://www.inkscape.org/namespaces/inkscape"
   id="svg5048"
   height="48"
   width="48"
   version="1.1"
   inkscape:version="0.91 r13725"
   sodipodi:docname="distributor-logo-archlinux.svg">
  <sodipodi:namedview
     pagecolor="#ffffff"
     bordercolor="#666666"
     borderopacity="1"
     objecttolerance="10"
     gridtolerance="10"
     guidetolerance="10"
     inkscape:pageopacity="0"
     inkscape:pageshadow="2"
     inkscape:window-width="1325"
     inkscape:window-height="716"
     id="namedview11"
     showgrid="false"
     inkscape:zoom="13.906433"
     inkscape:cx="24"
     inkscape:cy="24"
     inkscape:window-x="41"
     inkscape:window-y="0"
     inkscape:window-maximized="1"
     inkscape:current-layer="svg5048" />
  <defs
     id="defs5050">
    <style
       id="current-color-scheme"
       type="text/css">.ColorScheme-Text {
        color:#31363b;
      }
      .ColorScheme-Background{
        color:#eff0f1;
      }
      .ColorScheme-ViewText {
        color:#31363b;
      }
      .ColorScheme-ViewBackground{
        color:#fcfcfc;
      }
      .ColorScheme-ViewHover {
        color:#3daee9;
      }
      .ColorScheme-ViewFocus{
        color:#3daee9;
      }
      .ColorScheme-ButtonText {
        color:#31363b;
      }
      .ColorScheme-ButtonBackground{
        color:#eff0f1;
      }
      .ColorScheme-ButtonHover {
        color:#3daee9;
      }
      .ColorScheme-ButtonFocus{
        color:#3daee9;
      }</style>
    <filter
       inkscape:label="Film Grain"
       inkscape:menu="Image Effects"
       inkscape:menu-tooltip="Adds a small scale graininess"
       style="color-interpolation-filters:sRGB;"
       id="filter3369">
      <feTurbulence
         type="fractalNoise"
         numOctaves="3"
         baseFrequency="1"
         seed="0"
         result="result0"
         id="feTurbulence3371" />
      <feColorMatrix
         result="result4"
         values="0"
         type="saturate"
         id="feColorMatrix3373" />
      <feComposite
         in="SourceGraphic"
         in2="result4"
         operator="arithmetic"
         k1="1.25"
         k2="0.5"
         k3="0.5"
         result="result2"
         id="feComposite3375" />
      <feBlend
         result="result5"
         mode="normal"
         in="result2"
         in2="SourceGraphic"
         id="feBlend3377" />
      <feComposite
         in="result5"
         in2="SourceGraphic"
         operator="in"
         result="result3"
         id="feComposite3379" />
    </filter>
    <filter
       style="color-interpolation-filters:sRGB;"
       inkscape:label="Blur Double"
       id="filter3405"
       inkscape:menu="Blurs"
       inkscape:menu-tooltip="Overlays two copies with different blur amounts and modifiable blend and composite">
      <feColorMatrix
         values="1 0 0 0 0 0 1 0 0 0 0 0 1 0 0 0.21 0.72 0.07 1 0 "
         result="fbSourceGraphic"
         id="feColorMatrix3407" />
      <feColorMatrix
         result="fbSourceGraphicAlpha"
         in="fbSourceGraphic"
         values="0 0 0 -1 0 0 0 0 -1 0 0 0 0 -1 0 0 0 0 1 0"
         id="feColorMatrix3409" />
      <feColorMatrix
         id="feColorMatrix3411"
         values="1 0 0 0 0 0 0 1 0 0 0 1 0 0 0 0.21 0.72 0.07 1 0 "
         result="fbSourceGraphic"
         in="fbSourceGraphic" />
      <feColorMatrix
         result="fbSourceGraphicAlpha"
         in="fbSourceGraphic"
         values="0 0 0 -1 0 0 0 0 -1 0 0 0 0 -1 0 0 0 0 1 0"
         id="feColorMatrix3413" />
      <feColorMatrix
         id="feColorMatrix3415"
         values="1 0 0 0 0 0 0 1 0 0 0 1 0 0 0 0.21 0.72 0.07 0 0 "
         result="fbSourceGraphic"
         in="fbSourceGraphic" />
      <feColorMatrix
         result="fbSourceGraphicAlpha"
         in="fbSourceGraphic"
         values="0 0 0 -1 0 0 0 0 -1 0 0 0 0 -1 0 0 0 0 1 0"
         id="feColorMatrix3417" />
      <feGaussianBlur
         id="feGaussianBlur3419"
         stdDeviation="5"
         result="fbSourceGraphic"
         in="fbSourceGraphic" />
      <feGaussianBlur
         id="feGaussianBlur3421"
         stdDeviation="0.01"
         in="fbSourceGraphic"
         result="result1" />
      <feComposite
         id="feComposite3423"
         in2="result1"
         operator="arithmetic"
         in="fbSourceGraphic"
         k2="0.5"
         k3="0.5"
         result="result2" />
      <feBlend
         id="feBlend3425"
         in2="fbSourceGraphic"
         mode="normal"
         result="result3" />
    </filter>
  </defs>
  <metadata
     id="metadata5053">
    <rdf:RDF>
      <cc:Work
         rdf:about="">
        <dc:format>image/svg+xml</dc:format>
        <dc:type
           rdf:resource="http://purl.org/dc/dcmitype/StillImage" />
        <dc:title />
      </cc:Work>
    </rdf:RDF>
  </metadata>
  <g
     id="layer1"
     transform="translate(0 -1004.4)">
    <rect
       id="rect3024"
       ry="10"
       fill-opacity="0"
       transform="translate(0 52.362)"
       height="60"
       width="20"
       y="543"
       x="864" />
    <path
       id="path4071"
       d="m23.992 1008.4c-1.7804 4.365-2.8542 7.2202-4.8364 11.455 1.2153 1.2883 2.7071 2.7885 5.1298 4.4829-2.6046-1.0718-4.3812-2.1478-5.7089-3.2644-2.5368 5.2936-6.5114 12.834-14.577 27.326 6.3393-3.6597 11.253-5.916 15.833-6.777-0.19666-0.8458-0.30848-1.7607-0.30088-2.7153l0.007-0.2031c0.10058-4.0614 2.2133-7.1846 4.716-6.9725 2.5027 0.212 4.4481 3.6783 4.3475 7.7397-0.0189 0.7643-0.10513 1.4994-0.25573 2.1813 4.53 0.8862 9.3915 3.1367 15.645 6.7469-1.2331-2.2701-2.3337-4.3165-3.3847-6.2655-1.6556-1.2832-3.3824-2.9532-6.9048-4.7612 2.4211 0.6291 4.1546 1.3549 5.5058 2.1662-10.686-19.896-11.551-22.54-15.216-31.14z"
       style="enable-background:new"
       fill="#1793d1"
       fill-rule="evenodd" />
    <path
       id="path4238"
       opacity=".3"
       style="enable-background:new"
       d="m19.465 14.773c-0.108 0.235-0.195 0.439-0.309 0.682 0.572 0.607 1.216 1.264 1.979 1.963 0.898 0.51 1.925 1.015 3.15 1.52-2.231-1.561-3.657-2.948-4.82-4.165zm4.326 11.557c-2.295 0.183-4.158 3.167-4.252 6.975l-0.008 0.203c-0.001 0.188 0.022 0.366 0.03 0.551 0.18-3.938 2.244-6.935 4.695-6.727 2.366 0.2 4.21 3.318 4.322 7.088 0.006-0.117 0.023-0.229 0.026-0.348 0.1-4.061-1.845-7.528-4.348-7.74-0.157-0.013-0.312-0.014-0.465-0.002zm9.912 5.643c1.523 0.782 2.669 1.53 3.66 2.24 0.682 0.296 1.306 0.601 1.846 0.926-0.281-0.523-0.483-0.909-0.75-1.409-1.235-0.647-2.752-1.237-4.756-1.757zm-14.037 4.287c-4.333 0.845-8.99 2.945-14.863 6.287-0.2928 0.527-0.499 0.907-0.803 1.453 6.339-3.66 11.254-5.916 15.834-6.777-0.072-0.31-0.12-0.637-0.168-0.963zm8.842 0.031c-0.042 0.329-0.092 0.653-0.16 0.963 4.53 0.886 9.391 3.136 15.644 6.746-0.283-0.521-0.507-0.94-0.777-1.439-5.804-3.305-10.416-5.402-14.707-6.27z"
       fill-rule="evenodd"
       transform="translate(0 1004.4)" />
    <path
       id="path4243"
       opacity=".3"
       style="enable-background:new"
       d="m23.992 4c-1.78 4.365-2.854 7.22-4.836 11.455 0.097 0.102 0.209 0.214 0.309 0.318 1.775-3.851 2.849-6.659 4.527-10.773 3.568 8.374 4.556 11.224 14.467 29.73 0.257 0.135 0.517 0.269 0.75 0.409-10.686-19.896-11.552-22.539-15.217-31.139zm-5.416 12.674c-2.537 5.293-6.51 12.834-14.576 27.326 0.275-0.159 0.533-0.3 0.8027-0.453 7.4683-13.448 11.332-20.779 13.773-25.873 1.328 1.116 3.105 2.192 5.709 3.264-1.282-0.897-2.293-1.735-3.15-2.52-1.012-0.574-1.856-1.153-2.559-1.744zm15.127 17.299c3.523 1.808 5.249 3.478 6.904 4.761 0.81 1.502 1.702 3.152 2.608 4.827 0.261 0.148 0.511 0.285 0.777 0.439-1.233-2.27-2.334-4.317-3.385-6.266-0.939-0.728-1.943-1.589-3.244-2.521-1.024-0.445-2.207-0.863-3.66-1.24zm-14.142 1.086c-0.004 0.083-0.02 0.161-0.022 0.246l-0.008 0.203c-0.005 0.605 0.053 1.186 0.135 1.752 0.055-0.011 0.113-0.027 0.168-0.037-0.158-0.68-0.243-1.411-0.273-2.164zm9.017 0.361c-0.033 0.638-0.103 1.258-0.23 1.834 0.053 0.01 0.107 0.026 0.16 0.037 0.05-0.396 0.085-0.801 0.096-1.219 0.005-0.222-0.019-0.434-0.026-0.652z"
       fill-rule="evenodd"
       transform="translate(0 1004.4)"
       fill="#fff" />
  </g>
  <path
     style="fill:#000000;stroke:#4d4d4d;stroke-width:0.20338982"
     d="m 27.823729,19.147319 c 0,-0.230331 0.08753,-0.364688 0.194507,-0.298572 0.106979,0.06612 0.142949,0.254569 0.07993,0.418784 -0.161334,0.420429 -0.274441,0.370886 -0.274441,-0.120212 z"
     id="path3427"
     inkscape:connector-curvature="0" />
  <path
     style="fill:#333333;filter:url(#filter3369)"
     d="m 5.8576271,41.788678 c 0,-0.04101 0.9946453,-1.877363 2.2103229,-4.080777 3.422764,-6.203754 6.940243,-12.823755 8.792022,-16.546848 l 1.685161,-3.388099 1.130823,0.767275 c 1.232002,0.835926 4.07384,2.320144 4.200284,2.1937 0.04324,-0.04324 -0.33224,-0.386464 -0.834403,-0.762719 -0.907031,-0.67961 -1.145718,-0.951499 -0.658786,-0.750423 0.13983,0.05774 0.620339,0.253991 1.067796,0.43611 l 0.81356,0.331124 -0.915254,-0.815059 c -0.953006,-0.848679 -0.850195,-1.049187 0.264337,-0.515527 l 0.650917,0.311671 -0.703708,-0.565909 c -1.604361,-1.290199 -3.669174,-3.14748 -3.669174,-3.300392 0,-0.09023 0.238723,-0.701713 0.530495,-1.358853 0.291772,-0.65714 1.167955,-2.750732 1.947073,-4.6524266 0.779119,-1.9016949 1.483105,-3.5262684 1.564415,-3.6101632 0.08131,-0.083895 0.819881,1.4262746 1.64127,3.3559322 2.67121,6.2753726 6.81132,14.7060646 11.154035,22.7134676 0.735789,1.356702 0.84771,1.680456 0.537523,1.554889 -1.069955,-0.433125 -3.215323,-1.122765 -3.282812,-1.055276 -0.04214,0.04214 0.440191,0.368284 1.071844,0.724765 0.631652,0.356484 1.112056,0.684556 1.067563,0.729047 -0.04449,0.04449 -0.525915,-0.05304 -1.069831,-0.21673 -1.515803,-0.456189 -1.549149,-0.357317 -0.147427,0.437125 0.706932,0.400664 1.251816,0.761998 1.210849,0.802965 -0.04097,0.04097 -0.520051,-0.05961 -1.064632,-0.223505 -0.54458,-0.163896 -1.016375,-0.271761 -1.048434,-0.239703 -0.03206,0.03206 0.617504,0.456683 1.443472,0.943609 0.825968,0.486925 2.305239,1.5162 3.28727,2.287275 1.471629,1.1555 1.924869,1.653222 2.578249,2.831282 0.436007,0.786128 0.745869,1.476197 0.68858,1.533484 -0.05729,0.05729 -1.051125,-0.401127 -2.208525,-1.0187 -2.843213,-1.517099 -6.456787,-3.046131 -8.94797,-3.786208 -1.131216,-0.336057 -2.078258,-0.611013 -2.10454,-0.611013 -0.02628,0 -0.09456,-1.121187 -0.151719,-2.491526 -0.114293,-2.739874 -0.502692,-4.127227 -1.566626,-5.595947 -2.230818,-3.079554 -5.486089,-2.173253 -6.976928,1.942448 -0.307897,0.849998 -0.446155,1.830585 -0.514951,3.652261 l -0.09405,2.490287 -0.839895,0.219054 c -3.157492,0.823522 -5.641342,1.809625 -9.5767222,3.802017 -1.7388128,0.880322 -3.1614777,1.56703 -3.1614777,1.526016 z"
     id="path3339"
     inkscape:connector-curvature="0" />
  <path
     style="fill:#333333"
     d="m 11.472608,36.939297 c -0.203911,-0.531383 -0.144253,-0.93548 0.114498,-0.775563 0.159998,0.09888 0.195405,0.03618 0.108078,-0.191386 -0.07716,-0.201071 -0.02927,-0.339714 0.117979,-0.341564 0.156755,-0.002 0.13572,-0.07558 -0.05723,-0.200276 -0.264818,-0.171138 -0.260979,-0.197571 0.02909,-0.200275 0.356039,-0.0033 0.726961,0.660124 0.425287,0.760682 -0.09849,0.03283 -0.139104,0.332034 -0.09025,0.664897 0.06499,0.442836 0.0066,0.605205 -0.217584,0.605205 -0.168525,0 -0.361964,-0.144774 -0.429864,-0.32172 z"
     id="path3381"
     inkscape:connector-curvature="0" />
  <path
     style="fill:#f9f9f9"
     d="m 5.3517745,42.67539 c 0.9855181,-1.50409 9.8191385,-5.543564 13.4448485,-6.148114 0.512139,-0.08539 0.654291,-0.02777 0.739999,0.299981 0.08968,0.342942 -0.02408,0.427587 -0.735606,0.547337 -1.83005,0.307998 -5.71095,1.824698 -9.4832501,3.706162 C 7.1377914,42.168035 5.275308,43.091167 5.178914,43.13216 5.08252,43.173153 5.1603072,42.967606 5.3517745,42.67539 Z"
     id="path3383"
     inkscape:connector-curvature="0" />
  <path
     style="fill:#f9f9f9"
     d="m 5.339386,41.786441 c 0.074497,-0.195763 1.1239787,-2.140678 2.3321815,-4.322034 3.1955185,-5.769366 6.1639485,-11.308685 8.6649635,-16.169492 1.208702,-2.349152 2.223862,-4.304716 2.255912,-4.345697 0.08897,-0.113755 2.509607,1.512389 3.490149,2.34462 0.477969,0.405673 0.830058,0.776563 0.782422,0.824199 -0.127695,0.127695 -1.688132,-0.69961 -3.013176,-1.597512 -0.637082,-0.431713 -1.208634,-0.784932 -1.270115,-0.784932 -0.06148,0 -0.92614,1.624576 -1.921466,3.61017 -3.300813,6.584855 -11.0058584,20.78475 -11.2820174,20.792021 -0.095867,0.0025 -0.1133507,-0.155581 -0.038854,-0.351343 z"
     id="path3385"
     inkscape:connector-curvature="0" />
  <path
     style="fill:#f9f9f9"
     d=""
     id="path3391"
     inkscape:connector-curvature="0" />
  <path
     style="fill:#f9f9f9"
     d=""
     id="path3393"
     inkscape:connector-curvature="0" />
  <path
     style="fill:#f9f9f9"
     d="m 42.147763,42.871766 c -0.225799,-0.158157 -1.87074,-1.017655 -3.655425,-1.909998 -3.335112,-1.667557 -6.073543,-2.765073 -8.482169,-3.399507 -1.070403,-0.281946 -1.372881,-0.444591 -1.372881,-0.738211 0,-0.47523 0.143431,-0.471423 2.020925,0.05363 4.142745,1.158549 11.485487,4.696682 11.97451,5.769971 0.263105,0.577453 0.116338,0.645278 -0.48496,0.224113 z"
     id="path3395"
     inkscape:connector-curvature="0" />
  <path
     style="fill:#f9f9f9"
     d=""
     id="path3397"
     inkscape:connector-curvature="0" />
  <path
     style="fill:#f9f9f9"
     d="m 42.411051,41.905783 c -0.160951,-0.261401 -0.633171,-1.09808 -1.049379,-1.859287 -0.61531,-1.125346 -1.080065,-1.638518 -2.486704,-2.745763 -0.95148,-0.748962 -2.294199,-1.704694 -2.983821,-2.123848 -0.689623,-0.419153 -1.116571,-0.760201 -0.948774,-0.757884 0.742251,0.01025 2.735728,1.05095 4.12214,2.151973 1.363961,1.083193 1.621771,1.410268 2.679317,3.39916 0.643577,1.210353 1.122826,2.247955 1.064999,2.305782 -0.05783,0.05783 -0.236827,-0.108733 -0.397778,-0.370133 z"
     id="path3399"
     inkscape:connector-curvature="0" />
  <path
     style="fill:#ececec;stroke:#4d4d4d;stroke-width:0.20338982;filter:url(#filter3405)"
     d=""
     id="path3403"
     inkscape:connector-curvature="0" />
  <path
     style="fill:#000000;stroke:#4d4d4d;stroke-width:0.07190917"
     d="m 19.635527,32.363892 c 0.0491,-0.679413 0.213439,-1.481146 0.443858,-2.165322 0.0999,-0.296625 0.188703,-0.571678 0.197345,-0.611228 0.05675,-0.259746 0.6274,-1.257903 0.952077,-1.66534 0.68732,-0.862518 1.444445,-1.367046 2.305765,-1.5365 1.511803,-0.29743 3.184954,0.884983 4.121859,2.912908 0.35642,0.771469 0.619141,1.66038 0.754868,2.554071 0.151829,0.99972 0.118732,1.146473 -0.07298,0.323591 -0.468247,-2.009852 -1.409297,-3.554415 -2.659472,-4.365041 -0.602383,-0.390592 -1.072242,-0.512043 -1.8391,-0.475379 -0.528159,0.02525 -0.703491,0.06745 -1.108297,0.266734 -1.380423,0.67958 -2.504417,2.42467 -2.992179,4.645595 l -0.142134,0.647183 0.03839,-0.531272 z"
     id="path3429"
     inkscape:connector-curvature="0" />
  <path
     style="fill:#000000;stroke:#4d4d4d;stroke-width:0.07190917"
     d="m 22.439357,18.080125 -1.222669,-0.607651 -0.857487,-0.859727 -0.857487,-0.859727 0.131553,-0.291733 c 0.07235,-0.160453 0.148171,-0.291732 0.168482,-0.291732 0.02031,0 0.395616,0.348577 0.834011,0.774615 0.889398,0.864329 1.812423,1.656128 2.648744,2.272174 0.927481,0.683195 0.744162,0.653648 -0.845147,-0.136219 z"
     id="path3431"
     inkscape:connector-curvature="0" />
  <path
     style="fill:#000000;stroke:#4d4d4d;stroke-width:0.07190917"
     d="m 22.238875,18.355815 c -0.308133,-0.259485 -0.546551,-0.485481 -0.529818,-0.502214 0.06822,-0.06822 0.982196,0.444785 0.982196,0.5513 0,0.06181 0.05037,0.184302 0.111941,0.272202 0.186841,0.266753 0.02361,0.17382 -0.564319,-0.321288 z"
     id="path3433"
     inkscape:connector-curvature="0" />
  <path
     style="fill:#000000;stroke:#4d4d4d;stroke-width:0.07190917"
     d=""
     id="path3435"
     inkscape:connector-curvature="0" />
  <path
     style="fill:#000000;stroke:#4d4d4d;stroke-width:0.07190917"
     d="M 38.005913,33.509696 C 37.778461,33.389407 37.591205,33.071972 36.194352,30.438758 33.6301,25.604872 32.54772,23.506947 30.746578,19.879605 28.350155,15.053417 27.321497,12.811044 25.097499,7.5651605 c -0.94407,-2.2268374 -1.18379,-2.7269971 -1.18379,-2.4699009 0,0.2052906 -3.985438,9.7691534 -4.132106,9.9158204 -0.02076,0.02076 -0.09853,-0.01727 -0.172829,-0.08451 -0.131129,-0.11867 -0.121414,-0.152183 0.331646,-1.144114 0.719722,-1.57576 1.617209,-3.704271 2.856508,-6.7745955 1.04723,-2.5944779 1.260599,-3.078562 1.260599,-2.8599954 0,0.1027184 2.822336,6.7060809 3.542851,8.2891369 2.276509,5.00176 4.514035,9.412138 10.388198,20.476135 0.215231,0.405388 0.364258,0.735639 0.33117,0.73389 -0.03309,-0.0017 -0.174312,-0.06355 -0.313833,-0.137335 z"
     id="path3437"
     inkscape:connector-curvature="0" />
  <path
     style="fill:#000000;stroke:#4d4d4d;stroke-width:0.07190917"
     d=""
     id="path3439"
     inkscape:connector-curvature="0" />
  <path
     style="fill:#000000;stroke:#4d4d4d;stroke-width:0.07190917"
     d="m 42.559448,42.045321 c -0.0809,-0.08883 -0.447953,-0.701352 -0.815676,-1.361157 -0.367722,-0.659804 -0.821908,-1.408442 -1.009301,-1.663639 -0.578414,-0.7877 -2.175606,-2.086746 -4.375519,-3.558745 -0.615752,-0.41201 -1.184268,-0.813349 -1.263368,-0.891866 -0.143628,-0.142567 -0.143485,-0.14269 0.107864,-0.09313 0.722742,0.142497 2.462908,1.083228 3.645378,1.970686 1.369113,1.027537 1.837187,1.602741 2.843894,3.494796 0.580934,1.091835 1.092246,2.186143 1.044009,2.23438 -0.0166,0.0166 -0.09638,-0.04249 -0.177281,-0.131321 z"
     id="path3441"
     inkscape:connector-curvature="0" />
  <path
     style="fill:#000000;stroke:#4d4d4d;stroke-width:0.07190917"
     d="m 41.96217,42.734688 c -0.375319,-0.217092 -1.798788,-0.95213 -3.163264,-1.633419 -3.63735,-1.816145 -5.784827,-2.700539 -8.405492,-3.461626 -1.454219,-0.422331 -1.697746,-0.547002 -1.697746,-0.869145 0,-0.18215 0.02907,-0.210768 0.234144,-0.230533 0.719582,-0.06935 4.535109,1.22736 7.435141,2.52684 1.231188,0.551686 3.301371,1.57962 4.123818,2.047652 0.687815,0.391416 1.766555,1.115306 1.928196,1.293918 0.154965,0.171233 0.349327,0.645794 0.28163,0.687633 -0.02972,0.01837 -0.361108,-0.144229 -0.736427,-0.36132 z"
     id="path3443"
     inkscape:connector-curvature="0" />
  <path
     style="fill:#000000;stroke:#4d4d4d;stroke-width:0.07190917"
     d=""
     id="path3445"
     inkscape:connector-curvature="0" />
  <path
     style="fill:#000000;stroke:#4d4d4d;stroke-width:0.07190917"
     d="m 4.1386888,43.834191 c 0,-0.02151 0.1516663,-0.315907 0.3370362,-0.654221 0.2672202,-0.487697 0.4002104,-0.652139 0.64201,-0.793843 0.1677357,-0.0983 0.3241387,-0.178727 0.3475624,-0.178727 0.023424,0 -0.021401,0.12543 -0.09961,0.278733 -0.078209,0.153303 -0.1220126,0.298919 -0.09734,0.323591 0.024672,0.02467 0.00765,0.04486 -0.037824,0.04486 -0.045475,0 -0.1608397,0.154235 -0.2563648,0.342745 -0.1595646,0.314886 -0.2649741,0.402571 -0.7815371,0.650122 -0.029662,0.01422 -0.053932,0.0082 -0.053932,-0.01326 z"
     id="path3447"
     inkscape:connector-curvature="0" />
  <path
     style="fill:#000000;stroke:#4d4d4d;stroke-width:0.07190917"
     d=""
     id="path3449"
     inkscape:connector-curvature="0" />
  <path
     style="fill:#000000;stroke:#4d4d4d;stroke-width:0.07190917"
     d="M 5.354776,41.870061 C 5.42143,41.63765 5.7998491,40.930311 8.0234979,36.88169 11.919045,29.789029 13.924128,26.022976 17.831707,18.459399 c 0.42398,-0.820663 0.790143,-1.492115 0.813694,-1.492115 0.193793,0 2.731079,1.763523 3.560465,2.474676 0.51656,0.442921 0.655426,0.617418 0.491349,0.617418 -0.241311,0 -1.48685,-0.692987 -3.019717,-1.680093 -0.530389,-0.34155 -1.007031,-0.621 -1.059206,-0.621 -0.125235,0 -0.326869,0.358586 -1.617384,2.876366 C 12.967347,28.504082 7.9442895,37.85977 5.9986425,41.126904 5.4726955,42.010075 5.2364017,42.282808 5.354776,41.870061 Z"
     id="path3451"
     inkscape:connector-curvature="0" />
  <path
     style="fill:#000000;stroke:#4d4d4d;stroke-width:0.07190917"
     d="m 23.158663,20.422888 c -0.364894,-0.177201 -0.51693,-0.281603 -0.415735,-0.285483 0.111046,-0.0043 0.146958,-0.0389 0.118148,-0.113982 -0.06666,-0.17372 0.02139,-0.129551 0.514858,0.258246 0.674127,0.529776 0.635094,0.555146 -0.217271,0.141219 z"
     id="path3453"
     inkscape:connector-curvature="0" />
  <path
     style="fill:#000000;stroke:#4d4d4d;stroke-width:0.07190917"
     d="m 21.778729,18.966483 c -0.241712,-0.252293 -0.164588,-0.249874 0.337251,0.01058 l 0.3955,0.205263 -0.269865,-0.0072 c -0.195846,-0.0052 -0.322807,-0.06245 -0.462886,-0.208655 z"
     id="path3455"
     inkscape:connector-curvature="0" />
  <path
     style="fill:#000000;stroke:#4d4d4d;stroke-width:0.07190917"
     d=""
     id="path3457"
     inkscape:connector-curvature="0" />
  <path
     style="fill:#000000;stroke:#4d4d4d;stroke-width:0.07190917"
     d="M 37.683756,34.307549 C 37.328112,34.121363 36.68373,33.733882 36.251794,33.44648 35.819859,33.159078 35.164719,32.755663 34.795928,32.550002 34.427136,32.34434 34.156863,32.165539 34.195321,32.152666 c 0.03846,-0.01287 0.499443,0.112983 1.024411,0.27968 0.524969,0.166697 0.994938,0.303969 1.044376,0.30505 0.04944,0.0011 0.08989,0.02893 0.08989,0.06189 0,0.03296 0.02913,0.05992 0.06472,0.05992 0.0356,0 0.341818,0.115995 0.680492,0.257767 l 0.615771,0.257767 0.32758,0.615785 c 0.180168,0.338682 0.318634,0.62473 0.307701,0.635663 -0.01093,0.01093 -0.31086,-0.132456 -0.666503,-0.318642 z"
     id="path3459"
     inkscape:connector-curvature="0" />
  <path
     style="fill:#000000;stroke:#4d4d4d;stroke-width:0.07190917"
     d="m 38.756493,34.855627 c -0.246162,-0.120493 -0.337574,-0.231827 -0.560869,-0.683098 -0.146726,-0.296528 -0.254943,-0.550974 -0.240482,-0.565435 0.01446,-0.01446 0.130456,0.01303 0.257768,0.06108 0.183936,0.06943 0.29833,0.211019 0.557,0.689426 0.179038,0.331129 0.315434,0.611037 0.303101,0.622018 -0.01233,0.01098 -0.154766,-0.04481 -0.316518,-0.123991 z"
     id="path3461"
     inkscape:connector-curvature="0" />
  <path
     style="fill:#000000;stroke:#4d4d4d;stroke-width:0.07190917"
     d="m 43.544911,43.720936 c -0.260099,-0.154029 -0.389537,-0.310733 -0.659684,-0.79865 -0.184851,-0.333862 -0.338557,-0.631949 -0.341569,-0.662415 -0.01146,-0.115975 0.564039,0.241131 0.695055,0.431288 0.18124,0.263054 0.678413,1.182656 0.651139,1.20439 -0.01174,0.0094 -0.166966,-0.06922 -0.344941,-0.174613 z"
     id="path3463"
     inkscape:connector-curvature="0" />
  <path
     style="fill:#000000;stroke:#4d4d4d;stroke-width:0.07190917"
     d=""
     id="path3465"
     inkscape:connector-curvature="0" />
</svg>
