<?xml version="1.0" encoding="UTF-8" standalone="no"?>
<!-- Created with Inkscape (http://www.inkscape.org/) -->

<svg
   xmlns:dc="http://purl.org/dc/elements/1.1/"
   xmlns:cc="http://creativecommons.org/ns#"
   xmlns:rdf="http://www.w3.org/1999/02/22-rdf-syntax-ns#"
   xmlns:svg="http://www.w3.org/2000/svg"
   xmlns="http://www.w3.org/2000/svg"
   xmlns:sodipodi="http://sodipodi.sourceforge.net/DTD/sodipodi-0.dtd"
   xmlns:inkscape="http://www.inkscape.org/namespaces/inkscape"
   id="svg7384"
   height="16"
   width="16"
   version="1.1"
   inkscape:version="0.48.3.1 r9886"
   sodipodi:docname="network-wired.svg">
  <defs
     id="defs12" />
  <sodipodi:namedview
     pagecolor="#ffffff"
     bordercolor="#666666"
     borderopacity="1"
     objecttolerance="10"
     gridtolerance="10"
     guidetolerance="10"
     inkscape:pageopacity="0"
     inkscape:pageshadow="2"
     inkscape:window-width="737"
     inkscape:window-height="480"
     id="namedview10"
     showgrid="false"
     inkscape:zoom="7.375"
     inkscape:cx="9.6461689"
     inkscape:cy="1.9014112"
     inkscape:window-x="0"
     inkscape:window-y="24"
     inkscape:window-maximized="0"
     inkscape:current-layer="svg7384" />
  <metadata
     id="metadata90">
    <rdf:RDF>
      <cc:Work
         rdf:about="">
        <dc:format>image/svg+xml</dc:format>
        <dc:type
           rdf:resource="http://purl.org/dc/dcmitype/StillImage" />
        <dc:title>Gnome Symbolic Icon Theme</dc:title>
      </cc:Work>
    </rdf:RDF>
  </metadata>
  <title
     id="title9167">Gnome Symbolic Icon Theme</title>
  <path
     inkscape:connector-curvature="0"
     d="M 4.75,0 C 3.7978,0 3,0.7978 3,1.75 v 4.5 C 3,7.2022 3.7978,8 4.75,8 h 6.5 C 12.2022,8 13,7.2022 13,6.25 V 1.75 C 13,0.7978 12.2022,0 11.25,0 H 4.75 z M 5,2 h 6 V 6 H 5 V 2 z"
     style="text-indent:0;text-transform:none;block-progression:tb;color:#bebebe;fill:#666666;fill-opacity:1"
     id="rect12675" />
  <path
     inkscape:connector-curvature="0"
     d="m 5.38,7 -0.28125,0.5625 -1,2 L 3.38,11 h 1.625 6 1.625 l -0.71875,-1.4375 -1,-2 -0.28,-0.56 h -0.62 -4 -0.625 z"
     style="text-indent:0;text-transform:none;block-progression:tb;color:#bebebe;fill:#666666;fill-opacity:1"
     id="path12677" />
  <path
     inkscape:connector-curvature="0"
     d="m 7,9 v 4 H 9 V 9 H 7 z"
     style="text-indent:0;text-transform:none;block-progression:tb;color:#bebebe;fill:#666666;fill-opacity:1"
     id="path12679" />
  <path
     inkscape:connector-curvature="0"
     d="m 2,13 v 2 H 14 V 13 H 2 z"
     style="text-indent:0;text-transform:none;block-progression:tb;color:#bebebe;fill:#666666;fill-opacity:1"
     id="path12681" />
</svg>
