<?xml version="1.0" encoding="UTF-8" standalone="no"?>
<!-- Created with Inkscape (http://www.inkscape.org/) -->

<svg
   xmlns:dc="http://purl.org/dc/elements/1.1/"
   xmlns:cc="http://creativecommons.org/ns#"
   xmlns:rdf="http://www.w3.org/1999/02/22-rdf-syntax-ns#"
   xmlns:svg="http://www.w3.org/2000/svg"
   xmlns="http://www.w3.org/2000/svg"
   xmlns:sodipodi="http://sodipodi.sourceforge.net/DTD/sodipodi-0.dtd"
   xmlns:inkscape="http://www.inkscape.org/namespaces/inkscape"
   id="svg7384"
   height="16"
   width="16"
   version="1.1"
   inkscape:version="0.48.3.1 r9886"
   sodipodi:docname="system-monitor-symbolic.svg">
  <defs
     id="defs10" />
  <sodipodi:namedview
     pagecolor="#ffffff"
     bordercolor="#666666"
     borderopacity="1"
     objecttolerance="10"
     gridtolerance="10"
     guidetolerance="10"
     inkscape:pageopacity="0"
     inkscape:pageshadow="2"
     inkscape:window-width="737"
     inkscape:window-height="409"
     id="namedview8"
     showgrid="false"
     inkscape:zoom="5.2149125"
     inkscape:cx="21.619512"
     inkscape:cy="3.5009075"
     inkscape:window-x="513"
     inkscape:window-y="245"
     inkscape:window-maximized="0"
     inkscape:current-layer="svg7384" />
  <metadata
     id="metadata90">
    <rdf:RDF>
      <cc:Work
         rdf:about="">
        <dc:format>image/svg+xml</dc:format>
        <dc:type
           rdf:resource="http://purl.org/dc/dcmitype/StillImage" />
        <dc:title>Gnome Symbolic Icon Theme</dc:title>
      </cc:Work>
    </rdf:RDF>
  </metadata>
  <title
     id="title9167">Gnome Symbolic Icon Theme</title>
  <path
     inkscape:connector-curvature="0"
     d="M 2.19,0 C 0.98,0 0,1.02 0,2.22 v 10.562 c 0,1.2008 0.98238,2.2188 2.1875,2.2188 h 11.625 C 15.0176,15.0008 16,13.9829 16,12.782 V 2.22 C 15.99,1.02 15.01,0 13.8,0 H 2.175 z m 0,2 h 11.625 c 0.12026,0 0.1875,0.08 0.1875,0.21875 v 10.562 c -0.01,0.14 -0.08,0.22 -0.2,0.22 H 2.1775 c -0.12026,0 -0.1875,-0.08 -0.1875,-0.21875 V 2.22 C 2,2.08 2.07,2 2.19,2 z"
     style="text-indent:0;text-transform:none;block-progression:tb;color:#bebebe;fill:#666666;stroke:none;stroke-opacity:0.72807020000000000;fill-opacity:1"
     id="rect11749-5-0" />
  <path
     inkscape:connector-curvature="0"
     d="M 9.31,3.97 A 0.50005,0.50005 0 0 0 8.96625,4.31375 l -1.6875,6.0938 -0.875,-1.1875 a 0.50005,0.50005 0 0 0 -0.41,-0.22 h -2.5 -0.5 v 1 h 0.5 2.25 l 1.3125,1.7812 a 0.50005,0.50005 0 0 0 0.875,-0.15625 l 1.5312,-5.4375 1.0625,3.4688 a 0.50005,0.50005 0 0 0 0.47,0.35 h 1.5 0.5 v -1 h -0.5 -1.125 L 9.93245,4.3188 a 0.50005,0.50005 0 0 0 -0.625,-0.34375 z"
     style="text-indent:0;text-transform:none;block-progression:tb;color:#000000;fill:#666666;fill-opacity:1"
     id="path3643" />
</svg>
