<?xml version="1.0" encoding="UTF-8" standalone="no"?>
<!-- Created with Inkscape (http://www.inkscape.org/) -->

<svg
   xmlns:dc="http://purl.org/dc/elements/1.1/"
   xmlns:cc="http://creativecommons.org/ns#"
   xmlns:rdf="http://www.w3.org/1999/02/22-rdf-syntax-ns#"
   xmlns:svg="http://www.w3.org/2000/svg"
   xmlns="http://www.w3.org/2000/svg"
   xmlns:sodipodi="http://sodipodi.sourceforge.net/DTD/sodipodi-0.dtd"
   xmlns:inkscape="http://www.inkscape.org/namespaces/inkscape"
   version="1.0"
   width="22"
   height="22"
   id="svg2"
   inkscape:version="0.48.2 r9819"
   sodipodi:docname="indicator-messages-new.svg">
  <metadata
     id="metadata9">
    <rdf:RDF>
      <cc:Work
         rdf:about="">
        <dc:format>image/svg+xml</dc:format>
        <dc:type
           rdf:resource="http://purl.org/dc/dcmitype/StillImage" />
      </cc:Work>
    </rdf:RDF>
  </metadata>
  <sodipodi:namedview
     pagecolor="#919191"
     bordercolor="#666666"
     borderopacity="1"
     objecttolerance="10"
     gridtolerance="10"
     guidetolerance="10"
     inkscape:pageopacity="1"
     inkscape:pageshadow="2"
     inkscape:window-width="1600"
     inkscape:window-height="825"
     id="namedview7"
     showgrid="false"
     inkscape:zoom="1.3409091"
     inkscape:cx="-244.1317"
     inkscape:cy="22.279367"
     inkscape:window-x="-4"
     inkscape:window-y="24"
     inkscape:window-maximized="1"
     inkscape:current-layer="svg2" />
  <defs
     id="defs4" />
  <g
     id="g3763"
     transform="translate(0,-1.5204853)">
    <path
       inkscape:connector-curvature="0"
       style="fill:#ffffff;fill-opacity:1;stroke:none"
       id="path3757"
       d="m 18,17 0,-8 -13,0 6,6 6,-6 1,1 -4,4 0.492907,0.519596 1,-1 2.047228,1.959223 -1,1 L 14.000277,14 12,16 l -2,0 -2,-2 -2.5094768,2.478819 -1,-1 2.0165692,-1.985911 1,1 L 8,14 4,10 5,9 4,9 l 0,8 14,0" />
    <path
       inkscape:connector-curvature="0"
       style="fill:none;stroke:#ffffff;stroke-width:1px;stroke-linecap:butt;stroke-linejoin:miter;stroke-opacity:1"
       id="path3759"
       d="m 2.5,7.5 0,11 17,0 0,-11 -17,0 z" />
  </g>
  <g
     id="g3751">
    <path
       d="m 18,15 0,-8 -13,0 6,6 6,-6 1,1 -4,4 0.492907,0.519596 1,-1 2.047228,1.959223 -1,1 L 14.000277,12 12,14 l -2,0 -2,-2 -2.5094768,2.478819 -1,-1 2.0165692,-1.985911 1,1 L 8,12 4,8 5,7 4,7 l 0,8 14,0"
       id="path3607"
       style="fill:#666666;fill-opacity:1;stroke:none"
       inkscape:connector-curvature="0" />
    <path
       d="m 2.5,5.5 0,11 17,0 0,-11 -17,0 z"
       id="path2822"
       style="fill:none;stroke:#666666;stroke-width:1px;stroke-linecap:butt;stroke-linejoin:miter;stroke-opacity:1"
       inkscape:connector-curvature="0" />
  </g>
</svg>
